<svg 
width="100px" 
xmlns="http://www.w3.org/2000/svg" viewBox="0 0 283.421 131.757"><path d="M151.516 59.482a8.2 8.2 0 0 0-5.917-2.562c-4.446 0-8.063 3.627-8.063 8.085 0 4.459 3.617 8.086 8.063 8.086a8.2 8.2 0 0 0 5.917-2.562l-1.931-1.781c-1.044 1.012-2.42 1.546-3.986 1.546-2.945 0-5.083-2.224-5.083-5.289 0-3.014 2.185-5.288 5.083-5.288 1.521 0 2.933.549 3.985 1.547l1.932-1.782zM266.67 72.93V57.08h-2.411l-7.047 10.3v-10.3h-2.98v15.85h2.389l7.069-10.299V72.93zM143.619 111.178a4.412 4.412 0 0 1-1.817-.383 4.89 4.89 0 0 1-2.552-2.625 5.019 5.019 0 0 1-.383-1.973 5.014 5.014 0 0 1 1.42-3.547 4.857 4.857 0 0 1 1.515-1.05c.574-.256 1.18-.384 1.817-.384s1.243.128 1.818.384a4.852 4.852 0 0 1 1.514 1.05 5.012 5.012 0 0 1 1.421 3.547 5.02 5.02 0 0 1-1.421 3.548c-.435.444-.94.794-1.514 1.05a4.42 4.42 0 0 1-1.818.383m0-8.845c-.521 0-1.007.097-1.461.29a3.583 3.583 0 0 0-1.959 2.028 4.147 4.147 0 0 0-.282 1.546c0 .558.094 1.074.282 1.547a3.583 3.583 0 0 0 1.959 2.027c.454.194.94.29 1.461.29s1.008-.096 1.461-.29a3.583 3.583 0 0 0 1.959-2.027c.188-.473.283-.989.283-1.547 0-.558-.095-1.073-.283-1.546a3.583 3.583 0 0 0-1.959-2.028 3.688 3.688 0 0 0-1.461-.29M155.858 104.407v6.624h-.997v-5.547h-3.648v5.547h-.996v-6.624zM157.688 107.719a3.484 3.484 0 0 1 .997-2.471 3.315 3.315 0 0 1 2.356-.989c.449 0 .877.087 1.286.262.408.175.764.417 1.07.727a3.501 3.501 0 0 1 .997 2.471 3.494 3.494 0 0 1-.997 2.471 3.346 3.346 0 0 1-1.07.726 3.234 3.234 0 0 1-1.286.263 3.328 3.328 0 0 1-2.356-.989 3.477 3.477 0 0 1-.727-1.098 3.443 3.443 0 0 1-.27-1.373m3.352-2.383c-.341 0-.656.058-.942.175a2.177 2.177 0 0 0-.741.491c-.207.211-.37.463-.491.755-.122.291-.182.612-.182.962s.06.671.182.963c.121.292.284.543.491.753.207.212.453.375.741.492.286.116.601.175.942.175.332 0 .644-.059.935-.175.292-.117.541-.28.748-.492.206-.21.37-.461.491-.753.122-.292.182-.613.182-.963s-.06-.671-.182-.962a2.363 2.363 0 0 0-.491-.755 2.168 2.168 0 0 0-.748-.491 2.48 2.48 0 0 0-.935-.175M166.224 113.898v-9.491h.969v.794c.054-.116.146-.233.276-.35.13-.116.291-.218.484-.303a3.487 3.487 0 0 1 1.407-.289c.449 0 .876.085 1.28.255.403.171.76.409 1.07.714a3.45 3.45 0 0 1 1.017 2.491 3.447 3.447 0 0 1-1.017 2.49c-.31.306-.667.543-1.07.714-.404.17-.831.256-1.28.256-.538 0-1.002-.097-1.393-.289-.39-.193-.64-.411-.747-.654v3.662h-.996zm5.506-6.179c0-.368-.06-.698-.182-.99a2.224 2.224 0 0 0-.498-.747 2.175 2.175 0 0 0-.76-.478 2.726 2.726 0 0 0-.97-.168c-.512 0-.962.11-1.353.33-.39.22-.64.531-.747.936v2.234c.107.404.357.716.747.936.391.22.841.33 1.353.33.35 0 .673-.056.97-.168.296-.112.549-.272.76-.478.211-.207.377-.456.498-.748.122-.291.182-.621.182-.989M175.555 104.407v2.665h3.743v-2.665h.996v6.624h-.996v-2.881h-3.743v2.881h-.998v-6.624zM182.582 111.031v-6.624h.997v2.046h1.332c.341 0 .664.059.969.175.306.117.571.279.795.485a2.3 2.3 0 0 1 .531.727c.131.278.196.579.196.902 0 .332-.065.638-.196.916-.129.278-.309.518-.538.72s-.496.362-.801.478a2.682 2.682 0 0 1-.969.175h-2.316zm2.545-1.077c.377 0 .684-.116.921-.35.239-.233.357-.53.357-.889 0-.367-.125-.657-.376-.868a1.358 1.358 0 0 0-.902-.316h-1.548v2.423h1.548zm3.284-5.547h.997v6.624h-.997v-6.624zM192.679 104.408v4.954l3.796-4.954h.997v6.623h-.997v-4.954l-3.796 4.954h-.996v-6.623h.996zm3.985-2.572c-.018.539-.22.969-.606 1.292-.386.323-.875.485-1.467.485-.592 0-1.084-.162-1.474-.485-.391-.323-.595-.753-.613-1.292l.942-.229a.987.987 0 0 0 .31.653c.188.184.467.276.835.276.35 0 .619-.092.808-.276a.986.986 0 0 0 .309-.653l.956.229zM202.359 104.407h1.144l2.209 5.223 2.127-5.223h1.144l-3.944 9.491h-1.145l1.252-3.029zM211.407 104.407v2.665h3.743v-2.665h.996v6.624h-.996v-2.881h-3.743v2.881h-.997v-6.624zM219.431 104.407v4.954l3.796-4.954h.997v6.624h-.997v-4.955l-3.796 4.955h-.997v-6.624zM228.922 104.407c.324 0 .619.042.889.128.269.085.502.206.7.363.197.157.35.346.458.566s.161.469.161.747c0 .601-.193 1.055-.578 1.359.287.154.509.356.666.607.157.251.236.565.236.942a1.728 1.728 0 0 1-.66 1.38 2.351 2.351 0 0 1-.728.391 2.794 2.794 0 0 1-.901.141h-2.653v-6.624h2.41zm-1.413 1.077v1.656h1.682c.261 0 .483-.074.667-.222a.729.729 0 0 0 .276-.599c0-.26-.092-.465-.276-.613a1.03 1.03 0 0 0-.667-.222h-1.682zm0 2.733v1.737h1.965c.27 0 .5-.079.694-.236a.766.766 0 0 0 .289-.626.783.783 0 0 0-.289-.64 1.066 1.066 0 0 0-.694-.235h-1.965zM239.154 107.598c0 .144-.013.296-.04.458h-5.264c.072.695.332 1.204.781 1.524.449.322.991.482 1.629.482.485 0 .9-.073 1.245-.219.346-.146.653-.365.922-.657l.189.876a1.374 1.374 0 0 1-.33.43 2.099 2.099 0 0 1-.539.35c-.21.099-.444.18-.7.243a3.772 3.772 0 0 1-2.14-.142 3.1 3.1 0 0 1-1.084-.679 3.145 3.145 0 0 1-.721-1.091 3.832 3.832 0 0 1-.262-1.454c0-.485.076-.936.229-1.353s.37-.783.653-1.097a3.038 3.038 0 0 1 1.017-.741c.394-.18.839-.269 1.332-.269.458 0 .877.087 1.259.262.382.175.707.416.976.721.27.305.478.66.626 1.063.148.404.222.835.222 1.293m-3.083-2.262c-.242 0-.48.034-.714.101a2.146 2.146 0 0 0-.645.309 1.96 1.96 0 0 0-.505.525c-.14.212-.236.461-.29.748h4.174c-.072-.52-.292-.931-.66-1.232-.368-.301-.821-.451-1.36-.451M240.986 113.898v-9.491h.969v.794c.054-.116.146-.233.276-.35.13-.116.291-.218.485-.303a3.487 3.487 0 0 1 1.406-.289c.449 0 .876.085 1.28.255.404.171.76.409 1.07.714a3.45 3.45 0 0 1 1.017 2.491 3.447 3.447 0 0 1-1.017 2.49c-.31.306-.666.543-1.07.714-.404.17-.831.256-1.28.256-.538 0-1.002-.097-1.393-.289-.39-.193-.64-.411-.747-.654v3.662h-.996zm5.506-6.179c0-.368-.06-.698-.182-.99a2.21 2.21 0 0 0-.498-.747 2.175 2.175 0 0 0-.76-.478 2.726 2.726 0 0 0-.97-.168c-.512 0-.962.11-1.353.33-.39.22-.64.531-.747.936v2.234c.107.404.357.716.747.936.391.22.841.33 1.353.33.35 0 .673-.056.97-.168.296-.112.549-.272.76-.478.211-.207.378-.456.498-.748.122-.291.182-.621.182-.989M254.705 110.075a1.574 1.574 0 0 1-.317.397c-.139.13-.309.247-.511.35a3.444 3.444 0 0 1-1.582.357 3.464 3.464 0 0 1-2.397-.949 3.398 3.398 0 0 1-.754-1.09c-.188-.427-.283-.9-.283-1.421s.095-.992.283-1.414c.189-.421.44-.785.754-1.091a3.38 3.38 0 0 1 1.091-.707 3.483 3.483 0 0 1 1.306-.248c.304 0 .585.031.841.094s.485.146.687.249c.202.103.372.22.512.35.138.13.244.262.316.397l-.242.808a2.97 2.97 0 0 0-.795-.565 2.434 2.434 0 0 0-1.131-.256 3.22 3.22 0 0 0-1.063.168 2.346 2.346 0 0 0-.829.485 2.279 2.279 0 0 0-.733 1.73c0 .359.065.684.195.976.13.291.312.543.545.754.234.211.512.373.835.485s.682.168 1.077.168c.458 0 .846-.085 1.164-.256.319-.17.581-.363.788-.579l.243.808zM257.532 104.407v4.954l3.796-4.954h.997v6.624h-.997v-4.955l-3.796 4.955h-.997v-6.624zM269.514 105.484h-2.275v5.547h-.997v-5.547h-2.275v-1.077h5.547zM276.784 107.598c0 .144-.013.296-.04.458h-5.264c.072.695.332 1.204.781 1.524.449.322.991.482 1.629.482.485 0 .9-.073 1.245-.219.346-.146.653-.365.922-.657l.189.876a1.374 1.374 0 0 1-.33.43 2.099 2.099 0 0 1-.539.35c-.21.099-.444.18-.7.243a3.772 3.772 0 0 1-2.14-.142 3.1 3.1 0 0 1-1.084-.679 3.145 3.145 0 0 1-.721-1.091 3.832 3.832 0 0 1-.262-1.454c0-.485.076-.936.229-1.353s.37-.783.653-1.097a3.038 3.038 0 0 1 1.017-.741c.394-.18.839-.269 1.332-.269.458 0 .877.087 1.259.262.382.175.707.416.976.721.27.305.478.66.626 1.063.148.404.222.835.222 1.293m-3.083-2.262c-.242 0-.48.034-.714.101a2.146 2.146 0 0 0-.645.309 1.96 1.96 0 0 0-.505.525c-.14.212-.236.461-.29.748h4.174c-.072-.52-.292-.931-.66-1.232-.368-.301-.821-.451-1.36-.451M283.421 105.484h-2.275v5.547h-.997v-5.547h-2.275v-1.077h5.547zM163.477 69.999l1.145 2.931h3.308l-6.43-15.85h-1.734l-6.521 15.85h3.307l1.145-2.931h5.78zm-2.878-7.529l1.849 4.709h-3.723l1.874-4.709zM183.886 62.528V72.93h2.98V57.08h-1.744l-6.158 7.703-6.135-7.703h-1.744v15.85h2.98V62.527l4.899 6.112zM200.482 69.999l1.146 2.931h3.308l-6.431-15.85h-1.733l-6.521 15.85h3.307l1.145-2.931h5.779zm-2.877-7.529l1.849 4.709h-3.723l1.874-4.709zM220.048 63.15c0-3.63-2.835-6.07-7.054-6.07h-5.177v15.85h2.98v-3.687h2.197c4.219 0 7.054-2.449 7.054-6.093m-9.251-3.273h2.449c1.982 0 3.983 1.012 3.983 3.273 0 2.43-2.058 3.296-3.983 3.296h-2.449v-6.569zM234.704 61.263l1.932-1.782a8.2 8.2 0 0 0-5.918-2.561c-4.445 0-8.062 3.627-8.062 8.085 0 4.458 3.617 8.085 8.062 8.085 2.218 0 4.37-.933 5.918-2.562l-1.931-1.781c-1.044 1.012-2.42 1.546-3.987 1.546-2.945 0-5.082-2.224-5.082-5.288 0-3.015 2.185-5.288 5.082-5.288 1.521 0 2.933.548 3.986 1.546M150.569 93.77V77.921h-12.186V93.77h2.98V80.717h6.226V93.77zM162.086 77.761c-4.445 0-8.062 3.627-8.062 8.085s3.617 8.085 8.062 8.085c4.458 0 8.085-3.627 8.085-8.085s-3.627-8.085-8.085-8.085m0 13.373c-2.945 0-5.082-2.224-5.082-5.288 0-3.015 2.185-5.289 5.082-5.289 2.958 0 5.105 2.224 5.105 5.289 0 3.064-2.147 5.288-5.105 5.288M182.667 93.77h3.308l-6.43-15.849h-1.734L171.29 93.77h3.308l4.046-10.395zM201.568 93.77V77.921h-2.411L192.11 88.22V77.921h-2.98V93.77h2.389l7.069-10.299V93.77zM216.453 77.921H204.68v2.797h4.396V93.77h2.98V80.718h4.397zM230.285 80.717V77.92h-10.491v15.85h10.491v-2.797h-7.512v-3.775h6.939v-2.797h-6.939v-3.684zM243.727 93.77h3.378l-5.503-8.13 5.138-7.719h-3.379l-3.39 4.969-3.46-4.969h-3.378l5.137 7.58-5.505 8.269h3.402l3.733-5.52zM246.716 64.8l5.138-7.719h-3.379l-4.308 6.389h-1.463v-6.389h-2.98V72.93h2.98v-6.595h1.7l4.437 6.595h3.378z" fill="#fff"/><path d="M279.618 53.03a2.175 2.175 0 1 1-4.35 0 2.175 2.175 0 0 1 4.35 0" fill="#ed1746"/><path fill="#fff" d="M283.421 72.93V57.08h-2.411l-7.047 10.3v-10.3h-2.98v15.85h2.389l7.069-10.299V72.93z"/><path d="M75.208 64.589a8.04 8.04 0 1 1-16.08 0 8.04 8.04 0 0 1 16.08 0" fill="#ed1746"/><path d="M67.205 112.365c-26.343 0-47.775-21.432-47.775-47.775 0-12.794 4.99-24.813 14.052-33.843a1.322 1.322 0 0 1 1.866 1.872C26.787 41.15 22.072 52.504 22.072 64.59c0 24.886 20.247 45.132 45.133 45.132 13.622 0 26.377-6.061 34.995-16.629a1.32 1.32 0 0 1 1.859-.189 1.32 1.32 0 0 1 .189 1.859c-9.121 11.187-22.623 17.602-37.043 17.602M121.726 51.685a.901.901 0 0 1-.873-.681c-5.905-23.391-26.864-40.531-50.97-41.679a56.588 56.588 0 0 0-2.678-.064.9.9 0 1 1 0-1.801c.923 0 1.853.021 2.764.065 24.891 1.186 46.534 18.883 52.632 43.038a.902.902 0 0 1-.875 1.122M21.802 32.969c-6.491 9.302-9.92 20.232-9.92 31.617 0 5.771.861 11.393 2.583 16.78a5.286 5.286 0 0 0-1.691.634 56.854 56.854 0 0 1-2.701-17.414c0-11.753 3.547-23.043 10.249-32.651a.895.895 0 0 1 1.253-.219.903.903 0 0 1 .227 1.253M67.243 121.719c-7.615 0-15.011-1.474-21.983-4.381a.902.902 0 0 1 .695-1.664c6.75 2.816 13.912 4.244 21.288 4.244 11.157 0 21.909-3.305 31.096-9.558a.9.9 0 1 1 1.013 1.49c-9.486 6.456-20.589 9.869-32.109 9.869M67.168 131.757c-2.751 0-5.523-.168-8.238-.499a1.323 1.323 0 0 1-1.152-1.473 1.33 1.33 0 0 1 1.473-1.152c2.608.319 5.272.481 7.917.481 6.077 0 12.09-.843 17.873-2.507a1.32 1.32 0 1 1 .731 2.54 67.273 67.273 0 0 1-18.604 2.61M7.051 92.815c-.505 0-.987-.291-1.207-.781C1.966 83.38 0 74.146 0 64.589c0-9.561 1.968-18.797 5.847-27.451.299-.665 1.079-.964 1.747-.665a1.32 1.32 0 0 1 .665 1.746c-3.727 8.312-5.616 17.184-5.616 26.37 0 9.183 1.889 18.052 5.613 26.363a1.322 1.322 0 0 1-1.205 1.863" fill="#fff"/><path d="M129.11 37.683c-.126 0-.244.027-.367.037C120.811 19.486 105.208 5.648 85.847.054a1.322 1.322 0 0 0-.734 2.539c18.569 5.365 33.54 18.625 41.171 36.1-1.043.833-1.724 2.101-1.724 3.54a4.55 4.55 0 1 0 4.55-4.55M113.021 51.138a47.86 47.86 0 0 0-14.587-22.675 47.761 47.761 0 0 0-31.266-11.65c-2.777 0-5.56.24-8.272.714a1.32 1.32 0 0 0 .454 2.603 45.628 45.628 0 0 1 7.818-.674 45.12 45.12 0 0 1 29.536 11.005 45.216 45.216 0 0 1 13.734 21.273 5.412 5.412 0 0 0-2.942 4.815 5.416 5.416 0 1 0 10.833 0 5.413 5.413 0 0 0-5.308-5.411" fill="#fff"/><path d="M67.207 27.011c-20.726 0-37.584 16.858-37.584 37.576 0 .524.008 1.041.032 1.558a6.765 6.765 0 0 1 1.793-.243 36.047 36.047 0 0 1-.024-1.315c0-19.724 16.052-35.775 35.783-35.775 19.723 0 35.775 16.051 35.775 35.775 0 19.731-16.052 35.782-35.775 35.782-15.169 0-28.163-9.491-33.358-22.847a5.412 5.412 0 0 0-2.401-10.266 5.416 5.416 0 1 0 0 10.833c.228 0 .451-.019.671-.046 5.426 14.095 19.1 24.127 35.088 24.127 20.718 0 37.576-16.857 37.576-37.583 0-20.718-16.858-37.576-37.576-37.576M20.138 86.932a4.55 4.55 0 1 0-9.1 0 4.55 4.55 0 0 0 9.1 0" fill="#fff"/><path d="M67.207 46.531c-7.243 0-13.499 4.283-16.372 10.445a7.682 7.682 0 0 1 1.801.407c2.662-5.363 8.19-9.051 14.571-9.051 8.965 0 16.255 7.29 16.255 16.255s-7.29 16.262-16.255 16.262c-6.925 0-12.841-4.359-15.18-10.478a6.118 6.118 0 0 0-1.983-11.903 6.119 6.119 0 1 0 0 12.237c.062 0 .123-.007.184-.009 2.51 6.962 9.164 11.954 16.979 11.954 9.96 0 18.064-8.104 18.064-18.063 0-9.96-8.104-18.056-18.064-18.056" fill="#fff"/><path d="M87.993 64.586a6.12 6.12 0 1 0 6.769-6.084C91.97 45.855 80.68 36.361 67.205 36.361c-15.565 0-28.227 12.663-28.227 28.228S51.64 92.817 67.205 92.817c12.92 0 23.833-8.728 27.172-20.596-.089.003-.176.014-.265.014a7.632 7.632 0 0 1-2.378-.382c-3.139 10.58-12.944 18.321-24.529 18.321-14.107 0-25.584-11.477-25.584-25.585 0-14.107 11.477-25.585 25.584-25.585 12.118 0 22.287 8.471 24.916 19.801a6.116 6.116 0 0 0-4.128 5.781" fill="#fff"/></svg>